<svg id="Layer_2" data-name="Layer 2" xmlns="http://www.w3.org/2000/svg" viewBox="0 0 740.56 1572.92"><defs><style>.cls-1{fill:#fff;}.cls-2{fill:#ff1d25;}.cls-3{fill:#bcbcbc;}.cls-4{opacity:0.2;}.cls-5{fill:#8174ff;}.cls-6{fill:#efefef;}.cls-7{fill:#dbdbdb;}.cls-8{fill:#ddd;}.cls-9{opacity:0.1;}.cls-10{fill:#8ae9c1;}.cls-11{fill:#e2e2e2;}.cls-12{fill:#515151;}.cls-13{fill:#ccc;}.cls-14{fill:#878787;}.cls-15{fill:#b5b5b5;}.cls-16{opacity:0.05;}</style></defs><path class="cls-1" d="M739.4,803.09c-2.75,14.22-10.32,27.16-22.4,35.4A302.77,302.77,0,0,1,652.5,872l-.57.21c-.45.16-.91.34-1.36.49-2.27.85-4.54,1.65-6.82,2.42a294.13,294.13,0,0,1-83.32,15.52,297.4,297.4,0,0,1-35.66-.71q-13.47-1.08-26.66-3.32l-.39-.07c-1-.16-1.89-.32-2.85-.5-1.43-.26-2.85-.53-4.27-.81q-2.72-.53-5.41-1.11a304.1,304.1,0,0,1-85.09-32.36A319.41,319.41,0,0,1,339.93,808a54.21,54.21,0,0,1-12.32-17c-10.78-23.13-5.9-53.32,13.95-71.57,19.39-17.82,47-18.19,65.92-1.14a214.71,214.71,0,0,0,96.15,50.22c3.87.89,7.78,1.66,11.68,2.3a205.1,205.1,0,0,0,89.4-4.86q3.43-1,6.85-2.06a208.41,208.41,0,0,0,51.33-24.66,48.05,48.05,0,0,1,6-3.38c.46-.21.92-.42,1.38-.6a45.25,45.25,0,0,1,32.56-1.14,52.75,52.75,0,0,1,24,17.15C738.82,766.14,742.79,785.57,739.4,803.09Z"/><path class="cls-2" d="M515.34,770.75a.32.32,0,0,1,0,.09c-4.43,20.47-15.58,75.27-17.2,115.76l-.39-.07c-1-.16-1.89-.32-2.85-.5-1.43-.26-2.85-.53-4.27-.81q-2.72-.53-5.41-1.11c1.27-29.66,5.32-81.13,18.44-115.57l0-.09Q509.48,769.77,515.34,770.75Z"/><path class="cls-3" d="M644.64,875l-.8.29c-18.92-35.7-34.68-90.2-39.85-109.07a207.42,207.42,0,0,0,51-24.42c20.7-13.63,47.61-8.45,64.19,12.23h0c21.68,27,17.18,69.11-9.86,87.51A302,302,0,0,1,644.64,875Z"/><path class="cls-1" d="M651.56,871.46c1.9,4.31,6.33,6.35,10.23,4.69a318,318,0,0,0,52.89-28.76c29.34-19.74,33.47-66,9.25-96.16h0c-18.51-23.06-48.09-29.33-70.55-14.75a219.8,219.8,0,0,1-36.64,19.14c-4,1.65-6.16,6.61-4.74,11.23C624.52,807.51,640.15,845.63,651.56,871.46Z"/><path class="cls-4" d="M562.34,809.58l-.21,8.66a11.2,11.2,0,0,1-.51,21.69h0l-1.19,50.69a297.4,297.4,0,0,1-35.66-.71q-13.47-1.08-26.66-3.32l-.39-.07c-1-.16-1.89-.32-2.85-.5-1.43-.26-2.85-.53-4.27-.81q-2.72-.53-5.41-1.11a304.1,304.1,0,0,1-85.09-32.36A319.41,319.41,0,0,1,339.93,808a54.21,54.21,0,0,1-12.32-17c-10.78-23.13-5.9-53.32,13.95-71.57,19.39-17.82,47-18.19,65.92-1.14a214.71,214.71,0,0,0,96.15,50.22l0-.09q5.81,1.32,11.67,2.3a.32.32,0,0,1,0,.09,202.56,202.56,0,0,0,33.58,2.81l-.69,29.86,8.54.21A5.76,5.76,0,0,1,562.34,809.58Z"/><path class="cls-1" d="M54.8,1491.73h0a65.56,65.56,0,0,0,89.82,21.86l127.71-77.72a65.55,65.55,0,0,0,21.86-89.81h0a65.55,65.55,0,0,0-89.81-21.86L76.66,1401.92A65.55,65.55,0,0,0,54.8,1491.73Z"/><path class="cls-1" d="M375.42,1196.69l-1.3,4.42-11,37.29-5.23,17.75-4.83,16.43-2.06,7-2.68,9.06-.13.47-1,3.34-2.4,8.18-11.62,39.46c-.61,2.08-1.32,4.12-2.12,6.1a65.28,65.28,0,0,1-6.38,11.94v0a63.86,63.86,0,0,1-6.88,8.53,65.36,65.36,0,0,1-7.29,6.54l0,0a61.17,61.17,0,0,1-6.87,4.63c-1,.63-2.11,1.22-3.19,1.77a64.9,64.9,0,0,1-10.6,4.36h0a64.76,64.76,0,0,1-35.54.94h0c-.74-.18-1.47-.37-2.22-.6a65.75,65.75,0,0,1-46.56-56.21c-.16-1.47-.25-2.94-.3-4.44a68.84,68.84,0,0,1,.14-7,64.77,64.77,0,0,1,2-11.79c.14-.57.3-1.11.46-1.67l2.31-7.87,3.18-10.79,3.24-11,22.26-75.62L250,1159.8a65.52,65.52,0,0,1,81.14-44.25q2.47.72,4.84,1.63c1.05.4,2.09.83,3.1,1.27A65.6,65.6,0,0,1,375.42,1196.69Z"/><polygon class="cls-5" points="353.25 1272.63 348.51 1288.72 348.35 1288.67 330.46 1283.41 223.29 1251.87 228.02 1235.78 327.71 1265.12 353.09 1272.58 353.25 1272.63"/><path class="cls-6" d="M334.5,1376.89,327,1388.15l-19.93,30.08a24.14,24.14,0,0,1-24.9,10.26,23.82,23.82,0,0,1-8.46-3.49L174,1358.94a24.16,24.16,0,0,1-6.76-33.35l27.38-41.34a24.14,24.14,0,0,1,21.88-10.69,23.89,23.89,0,0,1,11.48,3.91L313.33,1334l14.39,9.52a25.33,25.33,0,0,1,3.37,2.69A24.17,24.17,0,0,1,334.5,1376.89Z"/><path class="cls-7" d="M208.55,1294.32,319.81,1368a5.48,5.48,0,0,0,7.58-1.54h0a5.48,5.48,0,0,0-1.54-7.58L214.59,1285.2a5.48,5.48,0,0,0-7.58,1.54h0A5.48,5.48,0,0,0,208.55,1294.32Z"/><path class="cls-7" d="M197.27,1311.34l111.26,73.71a5.48,5.48,0,0,0,7.58-1.54h0a5.48,5.48,0,0,0-1.54-7.58l-111.26-73.71a5.49,5.49,0,0,0-7.58,1.54h0A5.48,5.48,0,0,0,197.27,1311.34Z"/><path class="cls-7" d="M186,1328.36l111.26,73.71a5.48,5.48,0,0,0,7.58-1.53h0a5.5,5.5,0,0,0-1.54-7.59L192,1319.24a5.49,5.49,0,0,0-7.58,1.54h0A5.48,5.48,0,0,0,186,1328.36Z"/><path class="cls-7" d="M174.72,1345.39,286,1419.1a5.48,5.48,0,0,0,7.58-1.54h0A5.48,5.48,0,0,0,292,1410l-111.26-73.71a5.48,5.48,0,0,0-7.58,1.54h0A5.49,5.49,0,0,0,174.72,1345.39Z"/><path class="cls-4" d="M375.42,1196.69l-22.33,75.89.16.05-4.74,16.09-.16,0-15.14,51.45c-.61,2.08-1.32,4.12-2.12,6.1a24.17,24.17,0,0,1,3.41,30.67L327,1388.15a23.41,23.41,0,0,1-10.39-5.71,23.92,23.92,0,0,1-6.15-9.16l0-.07a23.9,23.9,0,0,1-1.26-12l0-.22,1.8-11.94,2.28-15.09,3.3-21.78a24.1,24.1,0,0,1,15.32-18.9l-1.49-9.92-2.75-18.29-13.36-89.07A65.5,65.5,0,0,1,336,1117.18,65.58,65.58,0,0,1,375.42,1196.69Z"/><path class="cls-1" d="M384.47,1572.27h0a65.56,65.56,0,0,0,73.92-55.5l21.07-148A65.54,65.54,0,0,0,424,1294.84h0a65.54,65.54,0,0,0-73.92,55.49l-21.08,148A65.56,65.56,0,0,0,384.47,1572.27Z"/><path class="cls-1" d="M458.63,1144.08,467,1200l3.35,22.32,2.49,16.58,8,53a65.22,65.22,0,0,1-6.6,39.61l-.25.48a66.29,66.29,0,0,1-6.19,9.6,65.47,65.47,0,0,1-7.79,8.43,65,65,0,0,1-31.84,15.82c-.74.15-1.51.27-2.27.39A65,65,0,0,1,386,1359.5a65.64,65.64,0,0,1-16.27-12,64,64,0,0,1-9.7-12.52,62.26,62.26,0,0,1-3.07-5.76c-.7-1.5-1.34-3-1.92-4.58a63.73,63.73,0,0,1-3.15-11.56c-.11-.56-.21-1.12-.29-1.7l-1.22-8.1-1.67-11.12-.44-3-.08-.53-1.18-7.85-1.58-10.44-10.51-70.13-5.51-36.7a65.36,65.36,0,1,1,129.27-19.41Z"/><rect class="cls-5" x="341.98" y="1231.88" width="130.54" height="16.77" transform="translate(994.06 2406.35) rotate(171.46)"/><rect class="cls-6" x="326.99" y="1287.85" width="167.74" height="97.72" rx="24.07" transform="translate(617.37 2719.81) rotate(-171.41)"/><path class="cls-7" d="M348.47,1303l132,19.94a5.49,5.49,0,0,0,6.23-4.59h0a5.49,5.49,0,0,0-4.59-6.23l-132-19.94a5.49,5.49,0,0,0-6.23,4.59h0A5.5,5.5,0,0,0,348.47,1303Z"/><path class="cls-7" d="M345.42,1323.14l132,19.94a5.49,5.49,0,0,0,6.23-4.59h0a5.49,5.49,0,0,0-4.59-6.23l-132-19.94a5.49,5.49,0,0,0-6.23,4.59h0A5.49,5.49,0,0,0,345.42,1323.14Z"/><path class="cls-7" d="M342.37,1343.33l132,19.94a5.5,5.5,0,0,0,6.23-4.59h0a5.49,5.49,0,0,0-4.6-6.23l-132-19.94a5.49,5.49,0,0,0-6.22,4.59h0A5.48,5.48,0,0,0,342.37,1343.33Z"/><path class="cls-7" d="M339.32,1363.52l132,19.94a5.48,5.48,0,0,0,6.22-4.59h0a5.48,5.48,0,0,0-4.59-6.23L341,1352.7a5.49,5.49,0,0,0-6.22,4.59h0A5.48,5.48,0,0,0,339.32,1363.52Z"/><path class="cls-8" d="M198.17,647.94s6.16-9.49.28-11.85-29.93-9.3-94.39-22.23c0,0-5.17-.87-6.86,8Z"/><rect class="cls-8" x="2.27" y="706.83" width="35.58" height="212.01" rx="8.9" transform="translate(21.1 1625.93) rotate(-178.66)"/><path class="cls-4" d="M458.63,1144.08,467,1200a87.47,87.47,0,0,1-23.84,2.73l-58.84-1.37-10.23-.24-14.78-.36-19.83-.46-4.64-.1-64.29-1.5-20.73-.49-11-.26L250,1159.8a65.52,65.52,0,0,1,81.14-44.25q2.47.72,4.84,1.63c1.05.4,2.09.83,3.1,1.27a65.29,65.29,0,0,1,119.53,25.63Z"/><path class="cls-1" d="M534.63,755.86l-1.21,51.76-1.66,70.75L531,910.09l-.09,4.08-1.32,55.77-2,87.39v.62l-1,44.08a88.46,88.46,0,0,1-61.88,82,87.51,87.51,0,0,1-28.28,4l-58.84-1.37-25-.59-19.83-.47-52-1.21-17-.39-20.73-.49-11.05-.26a52.26,52.26,0,0,1-46.55-31.36c-.37-.84-.72-1.69-1-2.56-.16-.43-.32-.86-.47-1.3s-.3-.88-.43-1.31-.28-.89-.4-1.35-.21-.74-.32-1.12l-.1-.4c-.1-.39-.19-.78-.28-1.17s-.2-.91-.29-1.35c0,0,0,0,0-.07-.1-.44-.18-.89-.25-1.34s-.16-.93-.23-1.4-.11-.85-.17-1.27a52.27,52.27,0,0,1-.34-7.32l0-1.93.51-22.23.38-16.3.52-22.24.39-16.3.52-22.24.64-27.42,1.84-78.56,1.65-70.39.09-4.44.55-23.13.07-3,.61-26.34.07-3,1.71-72.77.09-4.44.09-3.45c0-1,.08-2.07.18-3.1a50.87,50.87,0,0,1,2.88-13.23c.2-.57.42-1.13.64-1.69a.14.14,0,0,1,0-.07c.4-1,.84-2,1.31-2.93.19-.43.4-.83.61-1.25s.59-1.12.89-1.67.47-.87.73-1.3c.46-.77,1-1.55,1.46-2.3.81-1.2,1.64-2.38,2.55-3.52.61-.75,1.22-1.5,1.87-2.23s1.47-1.61,2.25-2.38c.33-.33.68-.66,1-1s.75-.7,1.12-1,.71-.63,1.07-.93a50.4,50.4,0,0,1,5-3.71c.43-.28.85-.56,1.29-.82l1-.61,1.05-.6.21-.11c.29-.16.56-.32.86-.47l.88-.45a49.42,49.42,0,0,1,5.79-2.48,51.38,51.38,0,0,1,18.44-3h.25l16.54.39,104,2.43,83.85,2c1.41,0,2.82.11,4.21.21.65,0,1.29.09,1.93.16,2.12.19,4.21.47,6.27.81,1.14.2,2.26.4,3.37.63a88.56,88.56,0,0,1,10.54,2.89c.58.2,1.18.41,1.76.63s1.25.45,1.87.71,1.24.49,1.85.75l1.83.79c.62.27,1.22.54,1.81.83s1.2.57,1.78.87.93.46,1.38.71c.83.43,1.64.87,2.46,1.33l1.39.81c1,.6,2,1.22,3,1.86s2,1.32,2.95,2h0c.21.15.44.3.64.46,2.1,1.49,4.14,3.09,6.09,4.78l.1.09c1,.86,2,1.73,2.92,2.63A88,88,0,0,1,534.63,755.86Z"/><circle class="cls-5" cx="544.29" cy="833.13" r="11.22" transform="translate(-424.65 606.16) rotate(-43.66)"/><path class="cls-3" d="M244.19,660.92l204.4,4.79a87.71,87.71,0,0,1,58.19,23.94,351.34,351.34,0,0,1-304.64-8.91A52.12,52.12,0,0,1,244.19,660.92Z"/><path class="cls-1" d="M88.07,1217.81l32.61.77a4.84,4.84,0,0,0,4.93-4.71h0a4.83,4.83,0,0,0-4.7-4.93l-32.61-.76a4.83,4.83,0,0,0-4.93,4.7h0A4.83,4.83,0,0,0,88.07,1217.81Z"/><path class="cls-3" d="M547.56,813.69l-.2,8.66-.51,21.7-1.18,50-.34,14.74a5.74,5.74,0,0,1-5.86,5.59l-2.68-.06-5.86-.14L525,914a5.76,5.76,0,0,1-5.59-5.87l.17-7.28.83-35.28,1.23-52.53a5.73,5.73,0,0,1,5.85-5.59l5.95.13,8.54.21A5.76,5.76,0,0,1,547.56,813.69Z"/><rect class="cls-3" x="69.52" y="1192.25" width="70.42" height="21.5" rx="6.67" transform="translate(181.29 2408.13) rotate(-178.66)"/><path class="cls-9" d="M244.19,660.92l120.55,2.82-12.23,522.37L232,1183.29A52.26,52.26,0,0,1,181.09,1130l9.78-418.15A52.28,52.28,0,0,1,244.19,660.92Z"/><path class="cls-1" d="M725.75,279.26c39.43,189.55-82.29,375.19-271.85,414.61A350.56,350.56,0,0,1,39.3,422C-.12,232.47,121.58,46.84,311.14,7.42S686.33,89.7,725.75,279.26Z"/><path class="cls-4" d="M307.59,719.63c-.61,26.07-9.83,419.63-9.83,419.63a72.13,72.13,0,0,1-17.05,45.17l-17-.39-20.73-.49-11.05-.26a52.26,52.26,0,0,1-46.55-31.36c-.37-.84-.72-1.69-1-2.56-.16-.43-.32-.86-.47-1.3s-.3-.88-.43-1.31-.28-.89-.4-1.35-.21-.74-.32-1.12l-.1-.4c-.1-.39-.19-.78-.28-1.17s-.2-.91-.29-1.35c0,0,0,0,0-.07-.1-.44-.18-.89-.25-1.34s-.16-.93-.23-1.4-.11-.85-.17-1.27a52.27,52.27,0,0,1-.34-7.32l0-1.93.51-22.23.38-16.3.52-22.24.39-16.3.52-22.24.64-27.42,1.84-78.56,1.65-70.39.09-4.44.55-23.13.07-3,.61-26.34.07-3,1.71-72.77.09-4.44.09-3.45c0-1,.08-2.07.18-3.1a50.87,50.87,0,0,1,2.88-13.23c.2-.57.42-1.13.64-1.69a.14.14,0,0,1,0-.07c.4-1,.84-2,1.31-2.93.19-.43.4-.83.61-1.25s.59-1.12.89-1.67.47-.87.73-1.3c.46-.77,1-1.55,1.46-2.3.81-1.2,1.64-2.38,2.55-3.52.61-.75,1.22-1.5,1.87-2.23s1.47-1.61,2.25-2.38c.33-.33.68-.66,1-1s.75-.7,1.12-1,.71-.63,1.07-.93a50.4,50.4,0,0,1,5-3.71c.43-.28.85-.56,1.29-.82l1-.61,1.05-.6.21-.11c.29-.16.56-.32.86-.47l.88-.45a49.42,49.42,0,0,1,5.79-2.48A346.6,346.6,0,0,0,291.69,689,111.16,111.16,0,0,1,307.59,719.63Z"/><path class="cls-1" d="M96.85,618.51c-38-5.71-67,30-67.91,68.6L18.51,1132.65c-.9,38.58,28.18,70.85,64.63,71.7l129.8,3c36.46.85,67-30,67.92-68.6l9.82-419.62C272,665.54,226.86,638.05,96.85,618.51Z"/><path class="cls-1" d="M290.68,719.17l-9.82,419.63c-.91,38.57-31.47,69.45-67.91,68.58L139,1205.66l-55.9-1.31c-36.45-.85-65.54-33.12-64.64-71.7L28.94,687.1c.9-38.58,29.91-74.3,67.91-68.58,20.63,3.09,39.11,6.39,55.7,10C240.52,647.43,275,674.05,290.68,719.17Z"/><path class="cls-8" d="M76.51,998.8l142.29,3.33a8.94,8.94,0,0,0,9.11-8.69l1.42-60.77a8.93,8.93,0,0,0-8.69-9.1L78.35,920.24a8.92,8.92,0,0,0-9.1,8.69L67.83,989.7A8.92,8.92,0,0,0,76.51,998.8Z"/><path class="cls-10" d="M69.8,905.21a11.12,11.12,0,1,0,11.38-10.86A11.13,11.13,0,0,0,69.8,905.21Z"/><path class="cls-8" d="M97.23,905.85A11.12,11.12,0,1,0,108.6,895,11.11,11.11,0,0,0,97.23,905.85Z"/><path class="cls-3" d="M506.64,913.6h0a4.91,4.91,0,0,0,5-4.79l2.28-97.43a4.91,4.91,0,0,0-4.79-5h0a4.91,4.91,0,0,0-5,4.79l-2.28,97.43A4.92,4.92,0,0,0,506.64,913.6Z"/><rect class="cls-8" x="64.47" y="1027.88" width="164.57" height="22.24" rx="8.9" transform="translate(269.17 2081.15) rotate(-178.66)"/><rect class="cls-8" x="63.57" y="1066.42" width="164.57" height="22.24" rx="8.9" transform="translate(266.46 2158.19) rotate(-178.66)"/><rect class="cls-8" x="62.67" y="1104.96" width="164.57" height="22.24" rx="8.9" transform="translate(263.76 2235.24) rotate(-178.66)"/><path class="cls-11" d="M535.29,978.1l-1.67,71.49a8.49,8.49,0,0,1-5.87,7.82l-.18.06a6.18,6.18,0,0,1-.77.18,8.21,8.21,0,0,1-1.8.16l-59.57-1.4a8.42,8.42,0,0,1-8.22-8.6l.65-27.78.06-2.35,1-41.37a8.45,8.45,0,0,1,8.61-8.22l59.59,1.39a8.21,8.21,0,0,1,2.53.46A8.43,8.43,0,0,1,535.29,978.1Z"/><path class="cls-4" d="M294.14,689.69q-12.33-3.18-24.3-7.25c-18.18-20.7-46.82-36-93.24-48.23a350.62,350.62,0,0,1-30.73-25.07c42.09,9,59.31,14,64.16,16,2.4,1,2.79,3.12,2.42,5.34C255.9,645.08,280,663.84,294.14,689.69Z"/><path class="cls-12" d="M331.73,361.21C366,525.75,476.67,641.87,579,620.58S760,443.8,725.75,279.26,557.47,3.45,455.11,24.74,297.51,196.67,331.73,361.21Z"/><rect class="cls-3" x="253.57" y="227.05" width="136.26" height="251.01" rx="28.05" transform="translate(708.46 632.21) rotate(168.25)"/><path class="cls-11" d="M486.06,1066.84h22.79a8.41,8.41,0,0,1,8.41,8.41v27.34a8.41,8.41,0,0,1-8.41,8.41H473.79a8.41,8.41,0,0,1-8.41-8.41v-15.07a20.68,20.68,0,0,1,20.68-20.68Z" transform="translate(957.02 2189.05) rotate(-178.66)"/><path class="cls-13" d="M464.46,947.68l51.17,1.2a2.11,2.11,0,1,0,.1-4.21l-47-1.1L473,764.36c7.68-1.83,39.92-10,51.72-20.63a2.1,2.1,0,1,0-2.81-3.13c-12.34,11.12-51.05,19.94-51.43,20l-1.61.36,0,1.64Z"/><rect class="cls-1" x="264.39" y="235.72" width="125.61" height="231.38" rx="25.86" transform="matrix(-0.98, 0.2, -0.2, -0.98, 719.09, 628.83)"/><path class="cls-14" d="M319.77,433.88l47.11-9.8a10,10,0,0,0,7.73-11.78L347.91,284a10,10,0,0,0-11.78-7.73L289,286a10,10,0,0,0-7.73,11.78L308,426.15A10,10,0,0,0,319.77,433.88Z"/><ellipse class="cls-14" cx="563.45" cy="224.21" rx="96.89" ry="164.91" transform="translate(-40.89 274.38) rotate(-26.44)"/><rect class="cls-8" x="79.91" y="714.38" width="145.67" height="137.14" rx="7.87" transform="translate(287.14 1569.26) rotate(-178.66)"/><path class="cls-15" d="M90.52,845.63,212,848.48a7.39,7.39,0,0,0,7.53-7.19l2.66-113.49a7.4,7.4,0,0,0-7.19-7.54L93.52,717.42A7.4,7.4,0,0,0,86,724.61L83.33,838.1A7.37,7.37,0,0,0,90.52,845.63Z"/><path class="cls-13" d="M228.6,963.8l28.16.66,4.42-189-35.38-.83a2.22,2.22,0,1,0-.11,4.44l30.94.73-4.21,180.09-23.72-.56a2.23,2.23,0,0,0-.1,4.45Z"/><path class="cls-1" d="M626.64,212.51l.74-.17a14.73,14.73,0,0,0,10.52-18c-11.37-43.48-57.1-79.06-59-80.56a14.74,14.74,0,0,0-18,23.35h0c.39.3,39.71,31,48.52,64.66A14.72,14.72,0,0,0,626.64,212.51Z"/><path class="cls-1" d="M525.21,110.42a14,14,0,1,0,10.87-16.58A14,14,0,0,0,525.21,110.42Z"/><path class="cls-13" d="M44.78,1118.92l20,.47a2.23,2.23,0,1,0,.11-4.45l-15.57-.36,3.35-143,22.23.52a2.23,2.23,0,0,0,.11-4.45L48.34,967Z"/><path class="cls-13" d="M48.88,1038.93l17.79.42a2.23,2.23,0,0,0,.1-4.45L49,1034.49a2.22,2.22,0,1,0-.1,4.44Z"/><path class="cls-13" d="M48,1077.47l20.75.49a2.23,2.23,0,0,0,.1-4.45L48.08,1073a2.23,2.23,0,0,0-.1,4.45Z"/><circle class="cls-11" cx="190.71" cy="808.68" r="16.31" transform="translate(-620.71 629.96) rotate(-64.31)"/><circle class="cls-1" cx="190.71" cy="808.68" r="13.34" transform="translate(-179.68 64.94) rotate(-13.2)"/><path class="cls-11" d="M132.9,807.32a16.31,16.31,0,1,0,16.69-15.92A16.31,16.31,0,0,0,132.9,807.32Z"/><circle class="cls-1" cx="149.2" cy="807.71" r="13.34" transform="translate(-516.36 326.37) rotate(-43.66)"/><circle class="cls-11" cx="107.72" cy="805.99" r="16.31" transform="translate(-526.65 297.26) rotate(-43.66)"/><path class="cls-1" d="M94.38,805.68a13.34,13.34,0,1,0,13.65-13A13.34,13.34,0,0,0,94.38,805.68Z"/><path class="cls-4" d="M545.67,894l-.34,14.74a5.74,5.74,0,0,1-5.86,5.59l-2.68-.06-5.86-.14-1.32,55.77a8.43,8.43,0,0,1,5.68,8.16l-1.67,71.49a8.49,8.49,0,0,1-5.87,7.82l-.18-.08a340.45,340.45,0,0,1-69.65-39.65q-4.19-3.07-8.27-6.29l-.09.08a25.18,25.18,0,0,1-35.46-2l-34.44-38.62a25.19,25.19,0,0,1-.12-33.27,357.37,357.37,0,0,1-37.63-68.41q-3.51-8.42-6.57-17-3.25-9-6-18.18a371,371,0,0,1-11.08-48c-4.94-30.41,13.66-60.63,41.31-73.53a68.91,68.91,0,0,1,23.69-6.29c30.5-2.39,56,17.06,61.11,46.25q2.07,11.85,5.18,23.23,2.51,9.31,5.68,18.26a248.23,248.23,0,0,0,26.8,54,25.21,25.21,0,0,1,28.29,6.48l10.07,11.3,11.37,12.76,13,14.58C545.08,893.3,545.39,893.67,545.67,894Z"/><path class="cls-1" d="M677.68,972.91a56.17,56.17,0,0,1,5.14,23.15c.43,36-30.26,67.48-64.24,65.22a315.33,315.33,0,0,1-74.49-14A307.42,307.42,0,0,1,427.7,979.77a315.17,315.17,0,0,1-77.76-111.56q-3.13-7.55-5.89-15.24-2.93-8.09-5.38-16.31a331.35,331.35,0,0,1-9.95-43.1c-4.43-27.29,12.26-54.41,37.07-66A61.52,61.52,0,0,1,387,722c27.38-2.14,50.25,15.31,54.83,41.49q1.86,10.63,4.65,20.84c1.5,5.58,3.2,11,5.1,16.39C480.14,881.42,551.51,938,638,945,655.9,946.47,670.38,957.25,677.68,972.91Z"/><path class="cls-5" d="M446.52,784.28c1.5,5.58,3.2,11,5.1,16.39-28.48,12.07-73,32-107.57,52.3q-2.93-8.09-5.38-16.31C367.46,819.32,409,796.57,446.52,784.28Z"/><path class="cls-3" d="M535.7,1044.66l-.85-.27c7.45-41.49,29.59-96.36,37.49-115.17A216.6,216.6,0,0,0,629.9,942c25.77,2.13,44.53,23.71,44.83,51.35h0c.39,36.15-30.38,67.78-64.42,65.48A314.91,314.91,0,0,1,535.7,1044.66Z"/><path class="cls-1" d="M543.65,1046.23c-1.21,4.75,1.11,9.28,5.37,10.42a332.21,332.21,0,0,0,61.92,10.44c36.79,2.67,69.95-32.64,69.49-73h0c-.35-30.84-20.6-55-48.41-57.52a228.3,228.3,0,0,1-42.4-7.87c-4.38-1.25-9.31,1.46-11.12,6.16C562.61,976.33,550.91,1017.67,543.65,1046.23Z"/><path class="cls-6" d="M446.53,995.92l83.59-74.53a22.59,22.59,0,0,0,1.82-31.81L501,854.92a22.6,22.6,0,0,0-31.82-1.83l-83.59,74.53a22.6,22.6,0,0,0-1.82,31.82l30.9,34.66A22.6,22.6,0,0,0,446.53,995.92Z"/><path class="cls-7" d="M396.24,949.27l93.28-83.16a5.14,5.14,0,0,0,.41-7.24h0a5.14,5.14,0,0,0-7.23-.41l-93.27,83.16a5.15,5.15,0,0,0-.42,7.24h0A5.13,5.13,0,0,0,396.24,949.27Z"/><path class="cls-7" d="M409,963.54l93.27-83.16a5.13,5.13,0,0,0,.42-7.23h0a5.13,5.13,0,0,0-7.23-.42L402.15,955.9a5.13,5.13,0,0,0-.41,7.23h0A5.13,5.13,0,0,0,409,963.54Z"/><path class="cls-7" d="M421.69,977.81,515,894.65a5.13,5.13,0,0,0,.41-7.23h0a5.14,5.14,0,0,0-7.23-.42l-93.27,83.17a5.13,5.13,0,0,0-.42,7.23h0A5.13,5.13,0,0,0,421.69,977.81Z"/><path class="cls-7" d="M434.42,992.09l93.27-83.17a5.13,5.13,0,0,0,.42-7.23h0a5.13,5.13,0,0,0-7.23-.41L427.6,984.44a5.13,5.13,0,0,0-.41,7.23h0A5.14,5.14,0,0,0,434.42,992.09Z"/><path class="cls-16" d="M290.68,719.17l-9.82,419.63c-.91,38.57-31.47,69.45-67.91,68.58L139,1205.66l13.51-577.17C240.52,647.43,275,674.05,290.68,719.17Z"/></svg>