<svg id="Layer_3" data-name="Layer 3" xmlns="http://www.w3.org/2000/svg" viewBox="0 0 724.83 1558.12"><defs><style>.cls-1{fill:#fff;}.cls-2{fill:#8174ff;}.cls-3{fill:#efefef;}.cls-4{fill:#dbdbdb;}.cls-5{opacity:0.2;}.cls-6{fill:#ddd;}.cls-7{fill:#bcbcbc;}.cls-8{opacity:0.1;}.cls-9{fill:#8ae9c1;}.cls-10{fill:#e2e2e2;}.cls-11{fill:#515151;}.cls-12{fill:#ccc;}.cls-13{fill:#878787;}.cls-14{fill:#b5b5b5;}.cls-15{fill:#ff9f2c;}.cls-16{fill:#ff3000;}.cls-17{opacity:0.05;}</style></defs><path class="cls-1" d="M455.36,1352.64a60.45,60.45,0,0,1,3.95,9.71v0a65,65,0,0,1,2.38,10.49c.09.74.19,1.49.25,2.22a60,60,0,0,1,.32,9.39,61,61,0,0,1-.74,7.46,62.06,62.06,0,0,1-2.81,11.14,65.4,65.4,0,0,1-5.09,11l-3.82,6.53-70.25,120.56a64.31,64.31,0,1,1-111.13-64.76l51.31-88.05,4.5-7.71,1.77-3.06,3.85-6.57,5.17-8.9,6-10.3,1.47-2.51c.16-.26.32-.55.49-.79v0a65.77,65.77,0,0,1,3.73-5.52,63.88,63.88,0,0,1,9.36-10,62.86,62.86,0,0,1,12.28-8.28c.8-.42,1.59-.81,2.41-1.2a64.45,64.45,0,0,1,59.68,2.6,60.59,60.59,0,0,1,7,4.74v0a62.41,62.41,0,0,1,10.5,10.29,61.4,61.4,0,0,1,5.57,8.11C454.19,1350.38,454.81,1351.51,455.36,1352.64Z" transform="translate(-5.79 -14.94)"/><path class="cls-1" d="M430.73,1158.84l.94,4.43,7.6,35.6.39,1.79,3.79,17.83.56,2.59,3,13.88.49,2.3,1,4.75,1.92,9.09.12.46.71,3.36,1.76,8.2,5.45,25.52,3,14.07a1,1,0,0,0,0,.17c.43,2,.76,4.07,1,6.1.06.48.1,1,.12,1.45a32.62,32.62,0,0,1,.21,3.54,62.51,62.51,0,0,1-.26,8.34v0a9.76,9.76,0,0,1-.14,1,62.31,62.31,0,0,1-1.83,9.6c-.1.32-.18.66-.28,1a60.51,60.51,0,0,1-3,8.08v0c-.13.27-.23.55-.37.8-.41.91-.84,1.81-1.31,2.7-.66,1.28-1.36,2.52-2.09,3.74,0,0,0,0,0,0-.62,1-1.26,2-1.93,3-.13.17-.25.37-.39.55a64.24,64.24,0,0,1-6.74,8.18c-.06.07-.15.13-.21.21a61.74,61.74,0,0,1-11.31,9.17c-.18.1-.37.24-.55.35a63.1,63.1,0,0,1-18.24,7.74h0c-.58.13-1.16.28-1.78.41a3.52,3.52,0,0,1-.41.1,63.72,63.72,0,0,1-39.57-4.23h0a56.3,56.3,0,0,1-5.37-2.72,63.23,63.23,0,0,1-11.37-8.12,64,64,0,0,1-6-6.12c-.41-.48-.82-1-1.21-1.45-1.09-1.35-2.13-2.72-3.11-4.17-.81-1.19-1.59-2.43-2.32-3.69v0c-.54-.91-1.05-1.85-1.53-2.79-.58-1.09-1.14-2.2-1.65-3.33v0a64,64,0,0,1-3.78-11.13c-.14-.56-.26-1.11-.37-1.66l-1.7-7.91-2.31-10.82-1.21-5.74-1.13-5.3-5.84-27.4-10.35-48.46-6-28.14L305,1185.7a63.76,63.76,0,0,1,5.66-42.56v0a65.08,65.08,0,0,1,5.67-9.14,63.92,63.92,0,0,1,23.93-19.76,61.83,61.83,0,0,1,14.19-4.83c1.66-.36,3.31-.64,5-.85,1.09-.14,2.19-.26,3.27-.35A64.55,64.55,0,0,1,430.73,1158.84Z" transform="translate(-5.79 -14.94)"/><polygon class="cls-2" points="441.34 1219.99 444.79 1236.13 444.62 1236.16 426.69 1240 319.18 1262.93 317.97 1257.25 315.74 1246.79 321.43 1245.58 415.74 1225.46 441.19 1220.02 441.34 1219.99"/><path class="cls-3" d="M479.77,1333.91l-1.18,13.26-3.13,35.34a23.77,23.77,0,0,1-16.74,20.56,24.16,24.16,0,0,1-6.54,1c-.79,0-1.59,0-2.42-.11l-117.22-10.41a23.31,23.31,0,0,1-8.46-2.39v0a22.68,22.68,0,0,1-4.33-2.82l4.5-7.71a5.38,5.38,0,0,1-1.88-2.19,5.44,5.44,0,0,1-.47-2.75,5.36,5.36,0,0,1,5.1-4.88l1-7-1.89-.28a23.57,23.57,0,0,1-14-7.54v0l3.26-36.63a23.78,23.78,0,0,1,13.93-19.51,23.49,23.49,0,0,1,11.76-2l100.31,8.93,16.91,1.51a24.22,24.22,0,0,1,4.18.74,23.8,23.8,0,0,1,17.31,24.93Z" transform="translate(-5.79 -14.94)"/><path class="cls-4" d="M332.11,1321.51l130.8,11.63a5.4,5.4,0,0,0,5.84-4.89h0a5.39,5.39,0,0,0-4.89-5.83l-130.8-11.63a5.39,5.39,0,0,0-5.84,4.88h0A5.4,5.4,0,0,0,332.11,1321.51Z" transform="translate(-5.79 -14.94)"/><path class="cls-4" d="M330.33,1341.52l130.8,11.63a5.4,5.4,0,0,0,5.84-4.88h0a5.4,5.4,0,0,0-4.89-5.84l-130.8-11.63a5.41,5.41,0,0,0-5.84,4.88h0A5.4,5.4,0,0,0,330.33,1341.52Z" transform="translate(-5.79 -14.94)"/><path class="cls-4" d="M328.55,1361.53l130.8,11.63a5.39,5.39,0,0,0,5.84-4.88h0a5.41,5.41,0,0,0-4.88-5.84L329.5,1350.81a5.39,5.39,0,0,0-5.83,4.89h0A5.38,5.38,0,0,0,328.55,1361.53Z" transform="translate(-5.79 -14.94)"/><path class="cls-4" d="M462.93,1385.55a5.33,5.33,0,0,1,.47,2.75,5.27,5.27,0,0,1-1.87,3.63,5.43,5.43,0,0,1-4,1.25l-3.8-.34-127-11.29a4.88,4.88,0,0,1-1.27-.28,4.62,4.62,0,0,1-1.26-.62,5.38,5.38,0,0,1-1.88-2.19,5.44,5.44,0,0,1-.47-2.75,5.36,5.36,0,0,1,5.1-4.88,4.57,4.57,0,0,1,.74,0l2.13.19,42.5,3.77h0l41.76,3.72h0l41.14,3.66,3.21.29a5.39,5.39,0,0,1,3.75,2A4.81,4.81,0,0,1,462.93,1385.55Z" transform="translate(-5.79 -14.94)"/><path class="cls-5" d="M430.73,1158.84l.94,4.43,8,37.39,3.79,17.83L447,1235l.15,0,3.45,16.14-.18,0,.12.46.71,3.36,1.76,8.2,8.45,39.59q.66,3.13,1,6.27a23.71,23.71,0,0,1,13.39,9.71l-6.43,42.52a24,24,0,0,1-13.7,18l-.41,3-1.55,10.67-1.58,11.27-2.37,16.5-70.25,120.56a64.2,64.2,0,0,1-12.68,15.52c-.46,0-.91-.11-1.38-.17a64.49,64.49,0,0,1-54.6-72.73l13.18-92.59v0l1.43-9.91.51-3.68,1-6.76,1-7-1.89-.28a23.57,23.57,0,0,1-14-7.54v0l3.26-36.63a23.78,23.78,0,0,1,13.93-19.51l-5.84-27.4.3-.2a23.79,23.79,0,0,1,3.26-1.85c.52-.24,1-.46,1.57-.66l-1.37-9.17-.17-1.11-10.36-69-5.42-36.11a60.81,60.81,0,0,1-.66-11.15v0a65.08,65.08,0,0,1,5.67-9.14,63.86,63.86,0,0,1,38.12-24.59c1.66-.36,3.31-.64,5-.85,1.09-.14,2.19-.26,3.27-.35A64.55,64.55,0,0,1,430.73,1158.84Z" transform="translate(-5.79 -14.94)"/><path class="cls-1" d="M384.17,1561.73h0a64.48,64.48,0,0,0,72.73-54.6l20.74-145.64A64.51,64.51,0,0,0,423,1288.75h0a64.5,64.5,0,0,0-72.73,54.61L329.56,1489A64.5,64.5,0,0,0,384.17,1561.73Z" transform="translate(-5.79 -14.94)"/><path class="cls-1" d="M457.13,1140.4l8.27,55,.31,2,3,20,2.44,16.32,7.83,52.2a56.64,56.64,0,0,1,.63,6.31,62.75,62.75,0,0,1-3.34,23.78c-.25.71-.51,1.44-.78,2.17a63.75,63.75,0,0,1-3,6.69l-.24.48a64,64,0,0,1-6.1,9.45h0a64.4,64.4,0,0,1-6.71,7.4c-.28.29-.59.57-.9.85,0,0,0,0,0,0-.94.83-1.88,1.64-2.85,2.44s-1.95,1.54-3,2.27a58.77,58.77,0,0,1-6.43,4,2.67,2.67,0,0,1-.36.22h0a63.26,63.26,0,0,1-18.69,6.6c-.72.15-1.48.27-2.23.39-.39.07-.77.11-1.17.15a63.3,63.3,0,0,1-27.7-2.46,65.25,65.25,0,0,1-10.39-4.33l0,0a65.89,65.89,0,0,1-10.53-6.87,74,74,0,0,1-5.5-5,64,64,0,0,1-5.87-6.83c-1.05-1.4-2.05-2.85-3-4.35-.24-.37-.47-.75-.69-1.13v0c-.86-1.44-1.66-2.92-2.41-4.42-.21-.39-.4-.81-.6-1.23-.68-1.47-1.32-3-1.89-4.52q-1-2.64-1.77-5.42c-.53-1.93-1-3.93-1.33-5.94-.1-.56-.19-1.11-.27-1.68l-1-6.3-.24-1.67L349,1286.08v0l-.43-2.91-.09-.54-1.16-7.71-.25-1.74-1.3-8.54-1.17-7.8-9.05-60.37-.13-.84-5.43-36.1a64.06,64.06,0,0,1,9.6-44.32c.22-.34.43-.67.68-1a64.21,64.21,0,0,1,116.92,26.2Z" transform="translate(-5.79 -14.94)"/><rect class="cls-2" x="342.35" y="1226.8" width="128.45" height="16.5" transform="translate(986.17 2381.15) rotate(171.46)"/><rect class="cls-3" x="327.61" y="1281.88" width="165.05" height="96.16" rx="15.06" transform="translate(611.15 2691.32) rotate(-171.41)"/><path class="cls-4" d="M348.75,1296.73l129.84,19.62a5.4,5.4,0,0,0,6.13-4.51h0a5.4,5.4,0,0,0-4.52-6.13l-129.85-19.62a5.4,5.4,0,0,0-6.12,4.52h0A5.4,5.4,0,0,0,348.75,1296.73Z" transform="translate(-5.79 -14.94)"/><path class="cls-4" d="M345.74,1316.6l129.85,19.62a5.39,5.39,0,0,0,6.12-4.52h0a5.39,5.39,0,0,0-4.51-6.12L347.35,1306a5.39,5.39,0,0,0-6.12,4.51h0A5.39,5.39,0,0,0,345.74,1316.6Z" transform="translate(-5.79 -14.94)"/><path class="cls-4" d="M342.74,1336.47l129.85,19.62a5.4,5.4,0,0,0,6.12-4.52h0a5.41,5.41,0,0,0-4.52-6.13l-129.84-19.62a5.41,5.41,0,0,0-6.13,4.52h0A5.41,5.41,0,0,0,342.74,1336.47Z" transform="translate(-5.79 -14.94)"/><path class="cls-4" d="M339.74,1356.33,469.58,1376a5.39,5.39,0,0,0,6.13-4.51h0a5.4,5.4,0,0,0-4.52-6.13l-129.84-19.62a5.4,5.4,0,0,0-6.13,4.52h0A5.4,5.4,0,0,0,339.74,1356.33Z" transform="translate(-5.79 -14.94)"/><path class="cls-6" d="M200.86,652.23s6-9.34.27-11.66-29.45-9.15-92.88-21.88c0,0-5.08-.84-6.75,7.87Z" transform="translate(-5.79 -14.94)"/><rect class="cls-6" x="8.1" y="710.18" width="35.01" height="208.61" rx="5.56" transform="translate(26.35 1614.41) rotate(-178.66)"/><path class="cls-5" d="M457.13,1140.4l8.27,55,.31,2a84.2,84.2,0,0,1-18.68,1.62l-7.76-.19-14-.31-36.11-.84-24.6-.59-19.51-.45-9.52-.23-28.39-.65L305,1185.7a63.76,63.76,0,0,1,5.66-42.56v0a65.08,65.08,0,0,1,5.67-9.14,63.92,63.92,0,0,1,23.93-19.76,64.21,64.21,0,0,1,116.92,26.2Z" transform="translate(-5.79 -14.94)"/><path class="cls-1" d="M531.92,758.43l-1.19,50.92L529.1,879l-.75,31.22-.08,4L527,969.06l-2,86v.14l0,.47-.61,25.94-.41,17.42a87,87,0,0,1-60.88,80.73,85.59,85.59,0,0,1-27.82,3.93l-21.81-.5-36.1-.84-24.6-.58-19.51-.46-51.13-1.18-16.7-.4-20.4-.49-10.87-.24a51.42,51.42,0,0,1-45.8-30.87c-.37-.83-.71-1.66-1-2.51l-.46-1.27c-.14-.45-.28-.86-.42-1.31l-.41-1.32c-.09-.35-.2-.72-.3-1.09,0-.14-.06-.27-.1-.41-.1-.37-.19-.75-.28-1.15s-.2-.88-.27-1.33l0-.06c-.08-.43-.17-.87-.25-1.32s-.14-.91-.2-1.39-.13-.82-.18-1.24a50.51,50.51,0,0,1-.32-7.2l0-1.9.49-21.87.38-16,.52-21.87.38-16,.51-21.87.64-27,1.8-77.3,1.63-69.27.09-4.38.53-22.74.08-3,.6-25.91.06-3,1.69-71.59.09-4.38.08-3.4c0-1,.08-2,.18-3a49.29,49.29,0,0,1,2.84-13c.2-.56.4-1.12.62-1.66l0-.08c.38-1,.82-1.92,1.28-2.88.2-.41.41-.81.61-1.23s.57-1.1.88-1.64.45-.86.7-1.28c.46-.75.93-1.52,1.44-2.27.8-1.18,1.63-2.34,2.5-3.44.61-.75,1.21-1.49,1.85-2.21s1.45-1.58,2.22-2.35c.32-.31.68-.64,1-1s.75-.7,1.11-1,.71-.63,1.05-.93a55,55,0,0,1,4.89-3.65c.41-.26.83-.55,1.25-.79l1-.6c.34-.21.69-.41,1-.59l.23-.11c.27-.15.54-.32.83-.46l.88-.45a50.05,50.05,0,0,1,5.68-2.44,50.94,50.94,0,0,1,18.13-3l.27,0,16.26.37,102.35,2.39,82.49,1.93c1.39,0,2.78.1,4.15.2l1.9.16c2.09.19,4.14.46,6.18.81,1.11.2,2.22.38,3.3.61a89,89,0,0,1,10.37,2.84c.58.2,1.16.41,1.73.63s1.25.44,1.85.69,1.2.49,1.83.73l1.8.78,1.77.82c.6.28,1.17.57,1.75.86s.91.46,1.35.71c.83.43,1.62.85,2.42,1.31.46.25.92.53,1.37.8,1,.57,2,1.2,3,1.81s1.95,1.3,2.9,2h0l.62.45c2.06,1.48,4.07,3.05,6,4.7,0,0,0,.06.09.09,1,.84,1.93,1.7,2.87,2.58A86.58,86.58,0,0,1,531.92,758.43Z" transform="translate(-5.79 -14.94)"/><path class="cls-2" d="M530.39,834.19a11,11,0,1,0,11.29-10.78A11,11,0,0,0,530.39,834.19Z" transform="translate(-5.79 -14.94)"/><path class="cls-7" d="M246.14,665l201.12,4.7a86.31,86.31,0,0,1,57.25,23.56,345.67,345.67,0,0,1-299.75-8.76A51.26,51.26,0,0,1,246.14,665Z" transform="translate(-5.79 -14.94)"/><path class="cls-1" d="M92.52,1213l32.09.76a4.76,4.76,0,0,0,4.85-4.63h0a4.75,4.75,0,0,0-4.63-4.85l-32.09-.76a4.76,4.76,0,0,0-4.85,4.63h0A4.75,4.75,0,0,0,92.52,1213Z" transform="translate(-5.79 -14.94)"/><path class="cls-7" d="M544.64,815.32l-.2,8.52-.5,21.36-1.15,49.18-.35,14.5a5.65,5.65,0,0,1-5.76,5.51l-2.63-.06-5.77-.14-5.86-.13a5.64,5.64,0,0,1-5.49-5.77l.16-7.17.81-34.71,1.22-51.69a5.64,5.64,0,0,1,5.76-5.5l5.85.13,8.4.2A5.67,5.67,0,0,1,544.64,815.32Z" transform="translate(-5.79 -14.94)"/><rect class="cls-7" x="74.27" y="1187.81" width="69.29" height="21.15" rx="4.17" transform="translate(183.97 2384.06) rotate(-178.66)"/><path class="cls-8" d="M246.14,665l118.61,2.77-12,514L234.11,1179A51.44,51.44,0,0,1,184,1126.52l9.63-411.45A51.43,51.43,0,0,1,246.14,665Z" transform="translate(-5.79 -14.94)"/><path class="cls-1" d="M694.05,211.83c81.81,172,8.66,377.85-163.39,459.67A344.94,344.94,0,0,1,71,508.11c-81.82-172-8.67-377.84,163.38-459.66S612.23,39.79,694.05,211.83Z" transform="translate(-5.79 -14.94)"/><path class="cls-5" d="M308.52,722.77c-.6,25.65-9.67,412.9-9.67,412.9a71,71,0,0,1-16.78,44.45l-16.68-.39-20.4-.48-10.88-.25a51.44,51.44,0,0,1-45.8-30.86c-.36-.83-.71-1.67-1-2.52-.15-.42-.31-.84-.46-1.28s-.29-.86-.42-1.29-.27-.88-.4-1.32-.2-.73-.31-1.11l-.1-.4c-.1-.38-.18-.76-.28-1.14s-.19-.9-.28-1.34a.07.07,0,0,1,0-.06c-.09-.43-.18-.88-.25-1.32s-.15-.92-.21-1.38-.12-.83-.18-1.25a50.57,50.57,0,0,1-.33-7.2l0-1.9.51-21.87.37-16,.52-21.88.38-16,.51-21.88.63-27,1.81-77.3,1.62-69.26.1-4.37.53-22.75.08-3,.6-25.92.06-3,1.68-71.6.1-4.37.08-3.39c0-1,.08-2,.18-3.05a49.83,49.83,0,0,1,2.83-13c.2-.56.41-1.1.63-1.66,0,0,0,0,0-.07.39-1,.82-1.93,1.28-2.88.19-.42.4-.82.6-1.23s.58-1.1.88-1.64.46-.86.72-1.28c.45-.76.93-1.52,1.43-2.27.79-1.17,1.62-2.34,2.51-3.45.6-.75,1.2-1.48,1.84-2.2s1.45-1.58,2.21-2.35l1-1,1.1-1,1.05-.91a50.51,50.51,0,0,1,4.89-3.65c.41-.27.83-.55,1.26-.8l1-.6,1-.59a.7.7,0,0,1,.21-.11c.28-.16.55-.32.84-.46l.87-.45a48.85,48.85,0,0,1,5.7-2.44,341.66,341.66,0,0,0,65.12,24.69A109.46,109.46,0,0,1,308.52,722.77Z" transform="translate(-5.79 -14.94)"/><path class="cls-1" d="M101.16,623.27c-37.39-5.62-65.94,29.54-66.83,67.5l-10.26,438.4c-.88,38,27.73,69.71,63.6,70.55l127.72,3c35.87.84,65.94-29.54,66.83-67.5,0,0,9.06-387.24,9.66-412.9C273.54,669.55,229.09,642.5,101.16,623.27Z" transform="translate(-5.79 -14.94)"/><path class="cls-1" d="M291.88,722.31c-.6,25.66-9.67,412.9-9.67,412.9-.88,38-31,68.34-66.82,67.49L142.68,1201l-55-1.29c-35.87-.84-64.49-32.59-63.6-70.55L34.34,690.76c.89-38,29.43-73.11,66.82-67.48,20.3,3,38.48,6.29,54.81,9.81C242.53,651.73,276.45,677.92,291.88,722.31Z" transform="translate(-5.79 -14.94)"/><rect class="cls-6" x="73.28" y="921.79" width="157.55" height="77.32" rx="5.56" transform="translate(275.82 1909.25) rotate(-178.66)"/><path class="cls-9" d="M74.55,905.37a10.94,10.94,0,1,0,11.19-10.68A10.94,10.94,0,0,0,74.55,905.37Z" transform="translate(-5.79 -14.94)"/><path class="cls-6" d="M101.53,906a10.94,10.94,0,1,0,11.19-10.69A10.94,10.94,0,0,0,101.53,906Z" transform="translate(-5.79 -14.94)"/><path class="cls-7" d="M504.38,913.63h0a4.85,4.85,0,0,0,4.94-4.71l2.24-95.87a4.84,4.84,0,0,0-4.71-4.94h0a4.83,4.83,0,0,0-4.94,4.71l-2.25,95.87A4.84,4.84,0,0,0,504.38,913.63Z" transform="translate(-5.79 -14.94)"/><rect class="cls-6" x="69.3" y="1026.08" width="161.93" height="21.88" rx="5.56" transform="translate(270.44 2062.33) rotate(-178.66)"/><rect class="cls-6" x="68.41" y="1064" width="161.93" height="21.88" rx="5.56" transform="translate(267.78 2138.13) rotate(-178.66)"/><rect class="cls-6" x="67.53" y="1101.92" width="161.93" height="21.88" rx="5.56" transform="translate(265.12 2213.94) rotate(-178.66)"/><path class="cls-10" d="M532.57,977.09l-1.65,70.35a8.35,8.35,0,0,1-5.77,7.7l-.18,0a6.3,6.3,0,0,1-.75.18,8.08,8.08,0,0,1-1.78.15l-58.61-1.37a8.3,8.3,0,0,1-8.09-8.46l.64-27.34.06-2.31.95-40.71a8.3,8.3,0,0,1,8.47-8.08l58.63,1.36a8.19,8.19,0,0,1,2.49.45A8.32,8.32,0,0,1,532.57,977.09Z" transform="translate(-5.79 -14.94)"/><path class="cls-5" d="M295.29,693.31q-12.14-3.13-23.92-7.14c-17.88-20.36-46.07-35.43-91.74-47.45a342.75,342.75,0,0,1-30.24-24.67c41.41,8.83,58.37,13.81,63.14,15.73,2.36,1,2.74,3.07,2.38,5.25C257.65,649.41,281.37,667.88,295.29,693.31Z" transform="translate(-5.79 -14.94)"/><path class="cls-11" d="M336.42,381.9c71,149.34,203.9,234.59,296.81,190.41s131.83-211.13,60.82-360.47S469-12.68,376.06,31.5,265.41,232.56,336.42,381.9Z" transform="translate(-5.79 -14.94)"/><rect class="cls-7" x="257.78" y="252.46" width="134.08" height="246.98" rx="17.55" transform="translate(773.83 561.04) rotate(154.57)"/><path class="cls-10" d="M476.71,1064.41h32.85a5.26,5.26,0,0,1,5.26,5.26v32.94a5.26,5.26,0,0,1-5.26,5.26H469a5.26,5.26,0,0,1-5.26-5.26v-25.26A12.94,12.94,0,0,1,476.71,1064.41Z" transform="translate(947.27 2168.5) rotate(-178.66)"/><path class="cls-12" d="M462.88,947.17l50.35,1.17a2.07,2.07,0,1,0,.09-4.13l-46.21-1.09,4.13-176.34c7.55-1.8,39.28-9.83,50.89-20.3a2.07,2.07,0,1,0-2.77-3.07c-12.14,10.94-50.22,19.61-50.61,19.7l-1.57.36,0,1.61Z" transform="translate(-5.79 -14.94)"/><rect class="cls-1" x="268.01" y="259.75" width="123.59" height="227.67" rx="16.18" transform="translate(782.3 554.39) rotate(154.57)"/><rect class="cls-13" x="298.47" y="298.88" width="66.95" height="148.59" rx="6.23" transform="translate(784.71 556.15) rotate(155)"/><ellipse class="cls-13" cx="526.07" cy="196.98" rx="95.34" ry="162.26" transform="translate(-8.91 370.48) rotate(-40.13)"/><rect class="cls-6" x="84.49" y="717.6" width="143.34" height="134.94" rx="4.93" transform="translate(288.13 1558.64) rotate(-178.66)"/><rect class="cls-14" x="89.14" y="721.98" width="134.04" height="126.19" rx="4.61" transform="translate(288.13 1558.64) rotate(-178.66)"/><path class="cls-12" d="M230.8,963l27.71.65,4.35-185.95L228,776.91a2.19,2.19,0,1,0-.1,4.37l30.44.71-4.15,177.2-23.33-.54a2.19,2.19,0,1,0-.1,4.37Z" transform="translate(-5.79 -14.94)"/><path class="cls-1" d="M583.75,171.1l.67-.34a14.5,14.5,0,0,0,5.88-19.64c-21-38.92-73-62.3-75.2-63.27a14.5,14.5,0,0,0-11.76,26.5h0c.45.2,45.19,20.41,61.44,50.53A14.49,14.49,0,0,0,583.75,171.1Z" transform="translate(-5.79 -14.94)"/><circle class="cls-1" cx="475.48" cy="91.18" r="13.8" transform="translate(224.53 493.72) rotate(-70.43)"/><path class="cls-12" d="M49.93,1115.66l19.69.46a2.19,2.19,0,1,0,.1-4.38l-15.31-.36L57.7,970.65l21.87.51a2.19,2.19,0,0,0,.11-4.38l-26.25-.61Z" transform="translate(-5.79 -14.94)"/><path class="cls-12" d="M54,1037l17.5.41a2.19,2.19,0,1,0,.1-4.37l-17.5-.41A2.19,2.19,0,1,0,54,1037Z" transform="translate(-5.79 -14.94)"/><path class="cls-12" d="M53.07,1074.87l20.42.48a2.19,2.19,0,1,0,.1-4.37l-20.42-.48a2.19,2.19,0,1,0-.1,4.37Z" transform="translate(-5.79 -14.94)"/><path class="cls-10" d="M177.47,810a16,16,0,1,0,16.42-15.66A16,16,0,0,0,177.47,810Z" transform="translate(-5.79 -14.94)"/><path class="cls-1" d="M180.38,810.08a13.13,13.13,0,1,0,13.44-12.82A13.14,13.14,0,0,0,180.38,810.08Z" transform="translate(-5.79 -14.94)"/><path class="cls-10" d="M136.63,809.06a16,16,0,1,0,16.42-15.67A16.05,16.05,0,0,0,136.63,809.06Z" transform="translate(-5.79 -14.94)"/><path class="cls-1" d="M139.55,809.13A13.13,13.13,0,1,0,153,796.31,13.13,13.13,0,0,0,139.55,809.13Z" transform="translate(-5.79 -14.94)"/><path class="cls-10" d="M95.81,807.37a16,16,0,1,0,16.42-15.66A16.05,16.05,0,0,0,95.81,807.37Z" transform="translate(-5.79 -14.94)"/><path class="cls-1" d="M98.73,807.44a13.13,13.13,0,1,0,13.43-12.82A13.14,13.14,0,0,0,98.73,807.44Z" transform="translate(-5.79 -14.94)"/><path class="cls-15" d="M125.92,1231s-14.09-5.57-19.31-5.39c-4.46.15-18,5.45-18,5.45S43,1247,67,1324.34s40.55,77.36,40.64,139c-.09-61.62,16.5-61.65,40.22-139.1S125.92,1231,125.92,1231Z" transform="translate(-5.79 -14.94)"/><path class="cls-16" d="M120.91,1228s-10.06-3-13.8-2.86c-3.18.08-12.88,2.9-12.88,2.9s-32.6,8.46-15.49,49.61,29,41.13,29,73.9c-.05-32.77,11.81-32.79,28.8-74S120.91,1228,120.91,1228Z" transform="translate(-5.79 -14.94)"/><path class="cls-5" d="M456,819.42q-5,12.11-8.66,24.15Q444.29,853.34,442,863a264.61,264.61,0,0,0-7.25,60.53,23.24,23.24,0,0,1,18.79,19.92l6.33,47.81a23.15,23.15,0,0,1-7.69,20.3,196.8,196.8,0,0,0,19.39,35.07c1.37,1.85,2.8,3.66,4.24,5.44,3.51-1,7.28-.26,9.48,2.25a204.43,204.43,0,0,0,21.85,21.49l21.75,24.88c-1.66,30.32-38,52.41-66.76,61l-.21.07c-11.27,3.34-39.07,0-48.87-4.74-11.34-5.5-19.38-16.2-28.34-25.22a6.55,6.55,0,0,1-.25-8.89c0-.55-.07-1-.11-1.57-1.44-1.55-2.9-3.09-4.31-4.66-.2-.21-.36-.41-.55-.61a.92.92,0,0,0,.14-.14,291.28,291.28,0,0,1-48.78-81.44l-.09,0a23.52,23.52,0,0,1-26.26-18.14l-10-46c-2.54-11.7,4-23,14.82-26.36a370.37,370.37,0,0,1,1.06-77c.72-6.19,1.57-12.37,2.61-18.56,1.05-6.57,2.3-13.13,3.71-19.68a426.52,426.52,0,0,1,14.36-51.14c11.29-32.53,43.75-51.34,75.11-47.26a63.62,63.62,0,0,1,24.15,8.28C458,754.93,468.36,789,456,819.42Z" transform="translate(-5.79 -14.94)"/><path class="cls-1" d="M528.74,1103.21a55.35,55.35,0,0,1-8.56,21.71c-19.45,29.57-61.82,38.37-88.29,17.83a310.74,310.74,0,0,1-53-52.45,302.45,302.45,0,0,1-57.78-119.11,310.13,310.13,0,0,1-2-133.79q1.59-7.87,3.58-15.67,2.07-8.21,4.59-16.26a326.48,326.48,0,0,1,15.61-40.63c11.41-24.69,39.95-37.62,66.55-33.4a60.59,60.59,0,0,1,20.44,7.1c23.51,13.33,32.55,40.15,21.88,64q-4.35,9.69-7.69,19.56-2.76,8.05-4.85,16.17c-21.2,81.56,5.88,167,72.57,220.34C525.52,1069.65,531.4,1086.42,528.74,1103.21Z" transform="translate(-5.79 -14.94)"/><path class="cls-2" d="M444,822.12q-2.76,8.05-4.85,16.17c-29.87-5.83-77.17-14.1-116.53-16.56q2.07-8.21,4.59-16.26C360.27,807.18,406.67,811.48,444,822.12Z" transform="translate(-5.79 -14.94)"/><path class="cls-7" d="M373.44,1083.57l-.54-.69c28.91-29.73,77.17-62.3,94-73.29a212.78,212.78,0,0,0,39.91,42.1c19.84,15.92,23.26,43.85,8.29,66.56h0c-19.58,29.69-62.09,38.56-88.58,17.94A310.1,310.1,0,0,1,373.44,1083.57Z" transform="translate(-5.79 -14.94)"/><path class="cls-1" d="M379.06,1089.22c-3.6,3.21-4.2,8.18-1.35,11.46a326.62,326.62,0,0,0,44.75,42.6c28.54,22.43,75,11.89,96.84-21.26h0c16.69-25.35,13.5-56.21-7.82-73.56a224,224,0,0,1-30.24-29.76c-2.89-3.43-8.41-3.93-12.46-1.09C433,1042.66,400.7,1069.93,379.06,1089.22Z" transform="translate(-5.79 -14.94)"/><rect class="cls-3" x="298.84" y="897.72" width="154.54" height="90.04" rx="14.1" transform="matrix(-0.99, 0.13, -0.13, -0.99, 869.4, 1811.62)"/><path class="cls-4" d="M312.22,929l121.85-16.48a5.05,5.05,0,0,0,4.32-5.67h0a5,5,0,0,0-5.67-4.31L310.86,919a5,5,0,0,0-4.31,5.67h0A5,5,0,0,0,312.22,929Z" transform="translate(-5.79 -14.94)"/><path class="cls-4" d="M314.74,947.65l121.85-16.48a5.05,5.05,0,0,0,4.32-5.67h0a5.05,5.05,0,0,0-5.67-4.32L313.39,937.66a5.05,5.05,0,0,0-4.32,5.67h0A5.05,5.05,0,0,0,314.74,947.65Z" transform="translate(-5.79 -14.94)"/><path class="cls-4" d="M317.26,966.29l121.85-16.48a5.05,5.05,0,0,0,4.32-5.67h0a5.06,5.06,0,0,0-5.67-4.32L315.91,956.3a5.06,5.06,0,0,0-4.32,5.67h0A5.05,5.05,0,0,0,317.26,966.29Z" transform="translate(-5.79 -14.94)"/><path class="cls-4" d="M319.78,984.94l121.85-16.48a5.06,5.06,0,0,0,4.32-5.67h0a5.05,5.05,0,0,0-5.67-4.32L318.43,975a5.05,5.05,0,0,0-4.32,5.67h0A5.05,5.05,0,0,0,319.78,984.94Z" transform="translate(-5.79 -14.94)"/><path class="cls-17" d="M291.88,722.31c-.6,25.66-9.67,412.9-9.67,412.9-.88,38-31,68.34-66.82,67.49L142.68,1201,156,633.09C242.53,651.73,276.45,677.92,291.88,722.31Z" transform="translate(-5.79 -14.94)"/></svg>